<svg width="1080" height="1080" viewBox="0 0 1080 1080" fill="none" xmlns="http://www.w3.org/2000/svg">
<g clip-path="url(#clip0_39_928)">
<path d="M728.78 0C706.66 35.54 693.88 77.38 693.88 122.26C693.88 157.96 701.95 191.74 716.4 222H584.41C384.62 222 222.65 383.96 222.65 583.76V676.06C186.32 652.42 143.11 638.77 96.7204 638.77C62.4604 638.77 29.9604 646.2 0.650391 659.61V583.38C0.650391 261.19 261.84 0 584.03 0H728.78Z" fill="#0CC683"/>
<path d="M202.11 871.07C202.11 872.19 202.11 873.39 202.03 874.5C200.1 931.27 151.21 976.28 93.0801 971.77C39.4501 967.62 -2.36988 920.07 0.100121 866.33C0.530121 857.02 2.22012 848.08 5.02012 839.6C18.2801 799.27 56.3701 770.05 101.09 770.05C156.75 770.05 202.11 815.33 202.11 871.07Z" fill="#0CC683"/>
<path d="M1027.18 124.57C1025.98 177.99 981.49 222.32 928.06 223.34C908.81 223.71 890.61 218.64 875.16 209.54C845.21 191.89 825.09 159.39 825.09 122.26C825.09 85.13 845.21 52.63 875.16 35.06C890.09 26.28 907.58 21.24 926.11 21.24C982.62 21.24 1028.46 67.78 1027.18 124.57Z" fill="#0CC683"/>
<path d="M1079.87 402.34V624.34H689.77C653.56 624.34 624.21 653.69 624.21 689.9V1080H402.21V590.64C402.21 486.64 486.52 402.34 590.51 402.34H1079.87Z" fill="#0CC683"/>
</g>
<defs>
<clipPath id="clip0_39_928">
<rect width="1079.87" height="1080" fill="white"/>
</clipPath>
</defs>
</svg>
